<svg version="1.1" id="Layer_1" xmlns="http://www.w3.org/2000/svg" xmlns:xlink="http://www.w3.org/1999/xlink" x="0px" y="0px"
	 width="100%" viewBox="0 0 1024 1024" enable-background="new 0 0 1024 1024" xml:space="preserve">
<path fill="#FFFFFF" opacity="1.000000" stroke="none" 
	d="
M454.000000,1025.000000 
	C302.666656,1025.000000 151.833328,1025.000000 1.000000,1025.000000 
	C1.000000,683.666687 1.000000,342.333344 1.000000,1.000000 
	C342.333344,1.000000 683.666687,1.000000 1025.000000,1.000000 
	C1025.000000,342.333344 1025.000000,683.666687 1025.000000,1025.000000 
	C834.833313,1025.000000 644.666687,1025.000000 454.000000,1025.000000 
M859.185730,564.033142 
	C858.594727,563.529114 858.003723,563.025085 857.044128,561.989563 
	C855.387390,560.967468 853.730591,559.945435 851.636719,558.385010 
	C841.418518,553.213928 831.386230,552.910095 821.019104,559.749146 
	C819.872498,560.667358 818.725891,561.585632 817.059509,562.779236 
	C816.523499,563.344238 815.987488,563.909180 814.964050,564.792297 
	C814.487854,565.392578 814.011597,565.992859 812.995850,566.976990 
	C801.935852,582.593567 805.087219,602.058655 820.378784,612.579163 
	C834.743774,622.462219 853.868835,618.475708 864.029663,603.078186 
	C871.707764,590.446777 870.340332,576.038025 860.242676,565.099426 
	C860.045532,564.836670 859.791748,564.651489 859.185730,564.033142 
M549.072266,357.264008 
	C548.773132,356.441833 548.474060,355.619690 548.155884,354.921509 
	C548.155884,354.921509 548.277161,354.889496 548.214478,354.136230 
	C546.799255,353.495117 545.383972,352.854034 543.049561,352.044495 
	C535.044250,352.097412 527.038940,352.150330 518.120544,352.068665 
	C514.738525,352.110779 511.356567,352.152924 507.054047,352.030426 
	C500.379639,352.080994 493.705200,352.131561 486.272675,352.053345 
	C485.507477,352.096954 484.742279,352.140564 483.094208,352.023590 
	C480.409729,352.075928 477.725250,352.128265 474.163788,352.041199 
	C470.217285,352.193787 472.101074,355.259430 472.099091,356.847443 
	C471.993530,440.609863 472.006989,524.372437 472.007965,608.135010 
	C472.007996,610.247498 472.007965,612.359985 472.007965,614.614563 
	C473.183014,614.756226 473.813049,614.897827 474.443237,614.898438 
	C491.095734,614.915833 507.748291,614.929993 524.400696,614.892456 
	C525.279175,614.890442 526.156616,614.428284 527.287170,613.715454 
	C527.254578,613.542114 527.221985,613.368774 527.407410,612.393433 
	C527.463867,555.887085 527.522827,499.380707 527.556641,442.874359 
	C527.557190,441.903992 527.253723,440.933472 527.182068,439.311401 
	C527.114197,438.879791 527.046265,438.448151 527.715820,437.724304 
	C528.828979,439.864441 530.143127,441.925262 531.023743,444.157166 
	C538.642456,463.466370 546.183105,482.806396 554.121033,502.798523 
	C555.450378,506.212616 556.779785,509.626709 558.037598,513.794556 
	C570.165405,545.872864 582.262451,577.962891 594.520142,609.991516 
	C595.080627,611.456055 597.068054,613.353821 598.424011,613.380798 
	C610.084473,613.612488 621.753906,613.531921 633.416382,613.316406 
	C634.651733,613.293579 636.541992,612.072266 636.977112,610.957520 
	C642.410767,597.036560 647.631653,583.032471 653.079651,568.298828 
	C654.398254,565.048767 655.716858,561.798767 657.538086,558.177429 
	C673.062988,518.284546 688.587891,478.391724 704.112793,438.498871 
	C704.604248,438.603882 705.095703,438.708893 705.587158,438.813904 
	C705.799927,442.179779 706.012756,445.545654 706.041992,449.773926 
	C706.101379,451.530579 706.160767,453.287262 706.037109,455.836975 
	C706.098450,458.873871 706.159790,461.910797 706.041992,465.754944 
	C706.103210,466.850342 706.164429,467.945770 706.039612,469.809723 
	C706.103455,470.855835 706.167358,471.901978 706.050049,473.805786 
	C706.110107,475.552765 706.170227,477.299713 706.038391,479.958710 
	C706.102539,485.621490 706.166687,491.284302 706.050964,497.725464 
	C706.111450,498.516876 706.171936,499.308258 705.988708,500.845337 
	C705.979248,533.068970 705.958557,565.292542 705.974182,597.516174 
	C705.976196,601.657715 706.166992,605.799072 706.083435,610.688843 
	C706.143494,611.451904 706.203613,612.215027 706.074707,613.750977 
	C707.386047,614.303528 708.692627,615.323364 710.009521,615.336914 
	C724.335815,615.484802 738.663635,615.475891 752.991089,615.507385 
	C755.595886,615.513123 758.200684,615.508240 760.843201,615.508240 
	C760.955566,614.239502 761.064270,613.584534 761.064331,612.929565 
	C761.072021,527.130554 761.075867,441.331543 761.026489,355.532532 
	C761.025879,354.414124 760.342346,353.296082 759.052185,352.039948 
	C735.685486,352.093628 712.318787,352.147308 688.212280,352.044891 
	C683.704773,351.978516 684.304077,356.192078 683.387207,358.513458 
	C662.520935,411.342010 641.866211,464.254028 621.161377,517.146362 
	C619.809204,520.600525 618.372864,524.021729 616.608276,528.361938 
	C615.543640,526.138489 614.905884,525.000305 614.435974,523.796692 
	C602.597229,493.471130 590.814819,463.123505 578.929626,432.816193 
	C575.122437,423.107941 571.051514,413.503082 567.075073,403.947449 
	C567.075073,403.947449 567.175049,403.945282 567.096497,403.154724 
	C561.628784,388.643402 556.172302,374.127838 550.658936,359.633911 
	C550.395203,358.940552 549.628113,358.438690 549.052979,357.948151 
	C549.052979,357.948151 549.160034,357.969086 549.072266,357.264008 
M372.527863,597.236450 
	C372.527863,597.236450 372.506592,597.300537 372.552185,598.097412 
	C373.980835,602.696045 375.693939,607.231567 376.732391,611.916687 
	C377.364777,614.769592 378.716248,615.145325 381.212219,615.133850 
	C400.353912,615.045410 419.496185,615.088379 438.638245,615.060303 
	C439.713318,615.058777 440.788025,614.789612 442.412689,614.571045 
	C438.461731,603.870422 434.675690,593.616455 430.726044,582.605835 
	C429.470886,579.057434 428.215759,575.509094 426.836334,571.196228 
	C417.215546,543.389099 407.661346,515.558716 397.942352,487.785950 
	C393.844513,476.076050 389.399109,464.487762 385.079956,452.949768 
	C385.079956,452.949768 385.190155,452.952301 385.123749,452.154388 
	C378.363800,432.895844 371.603851,413.637299 364.800446,393.588867 
	C360.440796,381.017487 355.969635,368.482941 351.799469,355.848999 
	C350.750397,352.670685 349.077698,351.958984 345.989075,351.998596 
	C334.006409,352.152313 322.020325,352.032349 310.035492,352.024933 
	C298.236572,352.017639 286.437653,352.023315 274.436798,352.023315 
	C273.936127,353.891327 273.514435,355.464691 272.703369,357.634857 
	C268.494598,370.067596 264.285797,382.500305 259.879333,395.697784 
	C257.043732,403.524506 254.112717,411.318207 251.391846,419.184601 
	C245.196075,437.097626 239.103394,455.046356 232.524155,473.517609 
	C216.325653,520.467712 200.127167,567.417786 183.795059,614.755066 
	C185.586411,614.844666 186.868774,614.962708 188.151337,614.964844 
	C206.308807,614.994873 224.468460,614.867188 242.622055,615.142212 
	C246.446579,615.200073 247.750214,613.792542 248.760361,610.469482 
	C253.639008,594.420532 258.843475,578.470154 263.661926,562.403687 
	C264.524261,559.528381 265.764740,558.922607 268.501770,558.932312 
	C297.486847,559.035767 326.472626,559.072815 355.457397,558.939026 
	C358.949310,558.922913 360.156982,560.053406 361.171021,563.362427 
	C364.446106,574.049622 368.255981,584.572937 371.852203,595.043274 
	C371.852203,595.043274 371.744019,595.086243 371.759796,595.710876 
	C372.037506,596.225403 372.315216,596.739990 372.527863,597.236450 
z"/>
<path fill="#2964E7" opacity="1.000000" stroke="none" 
	d="
M558.109192,513.040771 
	C556.779785,509.626709 555.450378,506.212616 554.216003,502.270447 
	C552.699463,496.815552 551.264343,491.822449 549.442627,486.974640 
	C544.498657,473.818512 539.449158,460.701111 534.317322,447.617065 
	C532.445007,442.843536 530.222046,438.207520 528.159119,433.508789 
	C527.726562,433.619446 527.294006,433.730103 526.861511,433.840759 
	C526.589294,435.248810 526.317139,436.656891 526.034058,438.529419 
	C526.023010,457.324677 526.039490,475.655457 526.019226,493.986206 
	C525.975342,533.644592 525.912659,573.302979 525.398132,612.974976 
	C509.607330,612.991882 494.274139,612.862610 478.946198,613.088379 
	C474.937439,613.147400 473.911865,611.899719 473.916718,607.993408 
	C474.019623,525.005005 474.018341,442.016388 473.920502,359.027954 
	C473.915924,355.169861 474.868500,353.865906 478.921906,353.903534 
	C500.083832,354.099915 521.248596,353.971313 542.412170,354.033447 
	C544.367981,354.039185 546.322205,354.591156 548.277161,354.889496 
	C548.277161,354.889496 548.155884,354.921509 548.104736,355.226135 
	C548.422424,356.343567 548.791199,357.156311 549.160034,357.969086 
	C549.160034,357.969086 549.052979,357.948151 549.040955,358.293091 
	C553.123657,369.662140 557.114319,380.726532 561.365784,391.689850 
	C562.995972,395.893738 565.221069,399.866943 567.175049,403.945282 
	C567.175049,403.945282 567.075073,403.947449 567.053345,404.312195 
	C567.666138,407.061340 568.089172,409.527008 568.968445,411.817505 
	C576.578308,431.642822 584.229553,451.452454 591.949707,471.235107 
	C599.133179,489.642761 606.381775,508.025391 613.727478,526.368713 
	C614.254089,527.683533 615.811829,528.585388 616.890076,529.679260 
	C617.712708,528.574829 618.829163,527.585571 619.313965,526.348755 
	C626.943909,506.880951 634.452393,487.365601 642.070251,467.893036 
	C651.023010,445.008057 660.043701,422.149628 669.055603,399.287811 
	C675.012390,384.176270 681.005310,369.078979 687.452515,353.979797 
	C709.744141,353.987732 731.566345,354.092651 753.386047,353.906097 
	C757.573547,353.870270 759.122314,354.698883 759.114136,359.331177 
	C758.967163,442.285126 759.014099,525.239380 758.965454,608.193604 
	C758.964294,610.130066 758.339050,612.066162 757.535706,614.000000 
	C742.435242,613.997925 727.803833,614.030945 713.172974,613.955078 
	C711.447021,613.946045 709.724243,613.339417 708.001221,612.539978 
	C708.002502,555.284973 708.012146,498.499725 707.959839,441.714539 
	C707.958069,439.828613 707.328308,437.943237 706.722290,435.871948 
	C704.387024,432.883423 703.478149,434.975311 702.734680,436.678375 
	C701.619751,439.232605 700.728760,441.884033 699.720154,444.485413 
	C686.401184,478.836365 673.039795,513.170959 659.815674,547.558411 
	C658.468994,551.060364 657.942505,554.877686 657.035461,558.548706 
	C655.716858,561.798767 654.398254,565.048767 652.648804,568.728699 
	C651.172485,571.169067 649.937561,573.105103 649.113647,575.202576 
	C644.994629,585.688477 640.955994,596.206421 636.948730,606.735779 
	C635.526855,610.471619 633.442688,612.339294 628.947083,612.128845 
	C619.645508,611.693420 610.308105,611.912109 600.988098,612.048157 
	C598.084534,612.090515 596.544861,611.241089 595.526855,608.316162 
	C591.223572,595.952393 586.768433,583.637512 582.128174,571.395996 
	C576.255737,555.903931 570.230957,540.467896 564.090149,525.080322 
	C562.434692,520.932190 560.120850,517.046753 558.109192,513.040771 
z"/>
<path fill="#2964E7" opacity="1.000000" stroke="none" 
	d="
M273.092743,357.038086 
	C273.514435,355.464691 273.936127,353.891327 274.436798,352.023315 
	C286.437653,352.023315 298.236572,352.017639 310.035492,352.024933 
	C322.020325,352.032349 334.006409,352.152313 345.989075,351.998596 
	C349.077698,351.958984 350.750397,352.670685 351.799469,355.848999 
	C355.969635,368.482941 360.440796,381.017487 364.718689,394.276733 
	C365.441315,397.920868 366.095703,400.927856 367.075897,403.824615 
	C371.479706,416.839020 375.897583,429.849976 380.490814,442.798126 
	C381.732391,446.298096 383.606415,449.573730 385.190125,452.952301 
	C385.190155,452.952301 385.079956,452.949768 385.055115,453.311646 
	C385.511536,455.757385 385.805878,457.906311 386.505737,459.913940 
	C389.834930,469.464661 393.344086,478.952698 396.661469,488.507416 
	C405.946411,515.250122 415.151489,542.020569 424.469666,568.751587 
	C424.892120,569.963501 426.112122,570.897339 426.960632,571.960693 
	C428.215759,575.509094 429.470886,579.057434 430.671082,583.275024 
	C430.681976,584.880188 430.549774,585.884216 430.844330,586.741699 
	C433.851624,595.496521 436.928284,604.227539 439.518524,612.981812 
	C419.379089,613.018921 399.706696,613.039490 380.005127,613.043335 
	C379.975922,613.026672 379.927063,612.980469 379.834106,612.773560 
	C379.555634,612.305298 379.304749,612.148499 378.736938,611.885742 
	C377.992584,610.454590 377.499817,609.234070 376.986694,607.712524 
	C376.654968,606.926453 376.343628,606.441467 375.987915,605.573853 
	C374.797913,602.560974 373.652252,599.930786 372.506592,597.300537 
	C372.506592,597.300537 372.527863,597.236450 372.686584,596.914124 
	C372.478180,596.089905 372.111115,595.588074 371.744019,595.086243 
	C371.744019,595.086243 371.852203,595.043274 371.906250,594.683105 
	C369.974670,587.553528 367.989075,580.783997 366.004974,573.673828 
	C365.682465,572.541992 365.358429,571.750793 365.020996,570.578125 
	C363.336731,566.131104 361.665833,562.065552 359.702271,557.702515 
	C358.766113,557.274353 358.122711,557.029846 357.479156,557.029358 
	C327.881470,557.007019 298.283722,556.994141 268.686127,557.044861 
	C267.462341,557.046936 266.239594,557.667542 264.660767,558.060669 
	C263.828339,558.741577 263.132141,559.291443 262.907104,559.992615 
	C258.197632,574.666138 253.723679,589.418091 248.814713,604.023865 
	C245.151627,614.922791 247.618164,612.821106 236.746429,612.994568 
	C229.915283,613.103516 223.080963,613.013977 216.248077,613.013794 
	C206.447693,613.013611 196.647308,613.013733 186.318253,613.013733 
	C188.109421,607.456787 189.626114,602.398315 191.366013,597.417725 
	C197.333740,580.334839 203.446732,563.302551 209.378815,546.207397 
	C216.779907,524.878967 224.109619,503.525208 231.324646,482.133301 
	C232.304520,479.228027 232.441528,476.038483 232.968826,472.980560 
	C239.103394,455.046356 245.196075,437.097626 251.391846,419.184601 
	C254.112717,411.318207 257.043732,403.524506 260.328735,395.265381 
	C265.075317,382.492462 269.375580,370.152985 273.638336,357.800537 
	C273.697388,357.629547 273.285065,357.295868 273.092743,357.038086 
M281.072357,509.048920 
	C281.072357,509.048920 281.190063,509.042572 280.568604,509.397400 
	C280.409729,510.313843 280.250854,511.230286 280.068146,512.062683 
	C280.068146,512.062683 280.155334,512.067749 279.768433,512.150574 
	C279.668335,512.233765 279.470459,512.366516 279.483551,512.392334 
	C279.593658,512.609497 279.742340,512.807190 279.999573,513.419189 
	C279.999573,513.419189 280.040192,513.843079 280.165253,514.662354 
	C281.801025,515.102295 283.434875,515.916321 285.072876,515.924744 
	C303.011902,516.016907 320.952179,516.053101 338.890320,515.897217 
	C341.169312,515.877441 343.438019,514.674255 345.711456,514.019287 
	C344.508972,511.030884 343.306488,508.042480 341.904755,504.280273 
	C340.605682,500.153625 339.306610,496.026978 338.265228,491.272430 
	C338.019897,489.539948 337.997345,487.739471 337.492889,486.086029 
	C334.349518,475.782928 331.156006,465.494232 327.868256,455.236267 
	C323.718231,442.287933 319.505951,429.358826 315.180298,416.468506 
	C314.773102,415.255127 313.364319,414.377838 312.420563,413.344482 
	C311.538483,414.345490 310.244934,415.204346 309.841888,416.370850 
	C307.433014,423.342926 305.220123,430.382935 302.958740,437.405701 
	C297.932556,453.014557 292.802277,468.591309 287.947357,484.253357 
	C285.706055,491.483917 284.010895,498.883759 282.089691,506.618835 
	C282.089691,506.618835 281.982819,507.017242 281.474152,507.377197 
	C281.351349,507.972107 281.228546,508.567047 281.072357,509.048920 
z"/>
<path fill="#1F52D9" opacity="1.000000" stroke="none" 
	d="
M548.245850,354.512878 
	C546.322205,354.591156 544.367981,354.039185 542.412170,354.033447 
	C521.248596,353.971313 500.083832,354.099915 478.921906,353.903534 
	C474.868500,353.865906 473.915924,355.169861 473.920502,359.027954 
	C474.018341,442.016388 474.019623,525.005005 473.916718,607.993408 
	C473.911865,611.899719 474.937439,613.147400 478.946198,613.088379 
	C494.274139,612.862610 509.607330,612.991882 525.530762,613.234131 
	C526.426758,613.713257 526.730652,613.946777 527.034485,614.180298 
	C526.156616,614.428284 525.279175,614.890442 524.400696,614.892456 
	C507.748291,614.929993 491.095734,614.915833 474.443237,614.898438 
	C473.813049,614.897827 473.183014,614.756226 472.007965,614.614563 
	C472.007965,612.359985 472.007996,610.247498 472.007965,608.135010 
	C472.006989,524.372437 471.993530,440.609863 472.099091,356.847443 
	C472.101074,355.259430 470.217285,352.193787 474.897247,352.359253 
	C478.412842,352.512939 481.194946,352.348572 483.977081,352.184174 
	C484.742279,352.140564 485.507477,352.096954 486.972351,352.374512 
	C494.439514,352.528839 501.207062,352.361969 507.974579,352.195068 
	C511.356567,352.152924 514.738525,352.110779 518.899719,352.389648 
	C527.775513,352.544739 535.872131,352.378845 543.968750,352.212921 
	C545.383972,352.854034 546.799255,353.495117 548.245850,354.512878 
z"/>
<path fill="#2454CE" opacity="1.000000" stroke="none" 
	d="
M359.994934,558.000000 
	C361.665833,562.065552 363.336731,566.131104 365.011841,570.921692 
	C365.345215,572.435974 365.674316,573.225281 366.003448,574.014526 
	C367.989075,580.783997 369.974670,587.553528 371.910034,594.741211 
	C368.255981,584.572937 364.446106,574.049622 361.171021,563.362427 
	C360.156982,560.053406 358.949310,558.922913 355.457397,558.939026 
	C326.472626,559.072815 297.486847,559.035767 268.501770,558.932312 
	C265.764740,558.922607 264.524261,559.528381 263.661926,562.403687 
	C258.843475,578.470154 253.639008,594.420532 248.760361,610.469482 
	C247.750214,613.792542 246.446579,615.200073 242.622055,615.142212 
	C224.468460,614.867188 206.308807,614.994873 188.151337,614.964844 
	C186.868774,614.962708 185.586411,614.844666 183.795059,614.755066 
	C200.127167,567.417786 216.325653,520.467712 232.746490,473.249084 
	C232.441528,476.038483 232.304520,479.228027 231.324646,482.133301 
	C224.109619,503.525208 216.779907,524.878967 209.378815,546.207397 
	C203.446732,563.302551 197.333740,580.334839 191.366013,597.417725 
	C189.626114,602.398315 188.109421,607.456787 186.318253,613.013733 
	C196.647308,613.013733 206.447693,613.013611 216.248077,613.013794 
	C223.080963,613.013977 229.915283,613.103516 236.746429,612.994568 
	C247.618164,612.821106 245.151627,614.922791 248.814713,604.023865 
	C253.723679,589.418091 258.197632,574.666138 262.907104,559.992615 
	C263.132141,559.291443 263.828339,558.741577 265.127502,558.060608 
	C297.298187,558.000000 328.646576,558.000000 359.994934,558.000000 
z"/>
<path fill="#2454CE" opacity="1.000000" stroke="none" 
	d="
M686.982056,353.975342 
	C681.005310,369.078979 675.012390,384.176270 669.055603,399.287811 
	C660.043701,422.149628 651.023010,445.008057 642.070251,467.893036 
	C634.452393,487.365601 626.943909,506.880951 619.313965,526.348755 
	C618.829163,527.585571 617.712708,528.574829 616.890076,529.679260 
	C615.811829,528.585388 614.254089,527.683533 613.727478,526.368713 
	C606.381775,508.025391 599.133179,489.642761 591.949707,471.235107 
	C584.229553,451.452454 576.578308,431.642822 568.968445,411.817505 
	C568.089172,409.527008 567.666138,407.061340 567.066406,404.263916 
	C571.051514,413.503082 575.122437,423.107941 578.929626,432.816193 
	C590.814819,463.123505 602.597229,493.471130 614.435974,523.796692 
	C614.905884,525.000305 615.543640,526.138489 616.608276,528.361938 
	C618.372864,524.021729 619.809204,520.600525 621.161377,517.146362 
	C641.866211,464.254028 662.520935,411.342010 683.387207,358.513458 
	C684.304077,356.192078 683.704773,351.978516 688.411255,352.332550 
	C688.067505,353.071899 687.524780,353.523621 686.982056,353.975342 
z"/>
<path fill="#1F52D9" opacity="1.000000" stroke="none" 
	d="
M687.452454,353.979767 
	C687.524780,353.523621 688.067505,353.071899 688.781128,352.410614 
	C712.318787,352.147308 735.685486,352.093628 759.524048,352.565704 
	C759.999329,387.863892 760.004700,422.636322 760.005615,457.408752 
	C760.007019,507.820496 760.025757,558.232300 759.920654,608.643799 
	C759.916931,610.431335 758.671570,612.216309 758.004883,614.002441 
	C758.339050,612.066162 758.964294,610.130066 758.965454,608.193604 
	C759.014099,525.239380 758.967163,442.285126 759.114136,359.331177 
	C759.122314,354.698883 757.573547,353.870270 753.386047,353.906097 
	C731.566345,354.092651 709.744141,353.987732 687.452454,353.979767 
z"/>
<path fill="#2454CE" opacity="1.000000" stroke="none" 
	d="
M558.073364,513.417664 
	C560.120850,517.046753 562.434692,520.932190 564.090149,525.080322 
	C570.230957,540.467896 576.255737,555.903931 582.128174,571.395996 
	C586.768433,583.637512 591.223572,595.952393 595.526855,608.316162 
	C596.544861,611.241089 598.084534,612.090515 600.988098,612.048157 
	C610.308105,611.912109 619.645508,611.693420 628.947083,612.128845 
	C633.442688,612.339294 635.526855,610.471619 636.948730,606.735779 
	C640.955994,596.206421 644.994629,585.688477 649.113647,575.202576 
	C649.937561,573.105103 651.172485,571.169067 652.562500,569.104126 
	C647.631653,583.032471 642.410767,597.036560 636.977112,610.957520 
	C636.541992,612.072266 634.651733,613.293579 633.416382,613.316406 
	C621.753906,613.531921 610.084473,613.612488 598.424011,613.380798 
	C597.068054,613.353821 595.080627,611.456055 594.520142,609.991516 
	C582.262451,577.962891 570.165405,545.872864 558.073364,513.417664 
z"/>
<path fill="#2454CE" opacity="1.000000" stroke="none" 
	d="
M757.535706,614.000000 
	C758.671570,612.216309 759.916931,610.431335 759.920654,608.643799 
	C760.025757,558.232300 760.007019,507.820496 760.005615,457.408752 
	C760.004700,422.636322 759.999329,387.863892 759.986694,352.634644 
	C760.342346,353.296082 761.025879,354.414124 761.026489,355.532532 
	C761.075867,441.331543 761.072021,527.130554 761.064331,612.929565 
	C761.064270,613.584534 760.955566,614.239502 760.843201,615.508240 
	C758.200684,615.508240 755.595886,615.513123 752.991089,615.507385 
	C738.663635,615.475891 724.335815,615.484802 710.009521,615.336914 
	C708.692627,615.323364 707.386047,614.303528 706.458618,613.369385 
	C707.228333,612.995117 707.614197,613.002441 708.000000,613.009766 
	C709.724243,613.339417 711.447021,613.946045 713.172974,613.955078 
	C727.803833,614.030945 742.435242,613.997925 757.535706,614.000000 
z"/>
<path fill="#2454CE" opacity="1.000000" stroke="none" 
	d="
M657.286743,558.363037 
	C657.942505,554.877686 658.468994,551.060364 659.815674,547.558411 
	C673.039795,513.170959 686.401184,478.836365 699.720154,444.485413 
	C700.728760,441.884033 701.619751,439.232605 702.734680,436.678375 
	C703.478149,434.975311 704.387024,432.883423 706.725708,436.324951 
	C706.740479,440.946289 706.482971,444.928925 706.225464,448.911530 
	C706.012756,445.545654 705.799927,442.179779 705.587158,438.813904 
	C705.095703,438.708893 704.604248,438.603882 704.112793,438.498871 
	C688.587891,478.391724 673.062988,518.284546 657.286743,558.363037 
z"/>
<path fill="#2454CE" opacity="1.000000" stroke="none" 
	d="
M426.898499,571.578491 
	C426.112122,570.897339 424.892120,569.963501 424.469666,568.751587 
	C415.151489,542.020569 405.946411,515.250122 396.661469,488.507416 
	C393.344086,478.952698 389.834930,469.464661 386.505737,459.913940 
	C385.805878,457.906311 385.511536,455.757385 385.070984,453.258881 
	C389.399109,464.487762 393.844513,476.076050 397.942352,487.785950 
	C407.661346,515.558716 417.215546,543.389099 426.898499,571.578491 
z"/>
<path fill="#2454CE" opacity="1.000000" stroke="none" 
	d="
M377.007050,608.013550 
	C377.499817,609.234070 377.992584,610.454590 378.844055,612.079834 
	C379.389099,612.730225 379.630524,612.895569 379.927063,612.980469 
	C379.927063,612.980469 379.975922,613.026672 380.300293,613.329590 
	C399.861450,613.735046 419.098175,613.845703 438.335083,613.898865 
	C438.884369,613.900391 439.435364,613.290161 439.985565,612.965210 
	C436.928284,604.227539 433.851624,595.496521 430.844330,586.741699 
	C430.549774,585.884216 430.681976,584.880188 430.752869,583.653320 
	C434.675690,593.616455 438.461731,603.870422 442.412689,614.571045 
	C440.788025,614.789612 439.713318,615.058777 438.638245,615.060303 
	C419.496185,615.088379 400.353912,615.045410 381.212219,615.133850 
	C378.716248,615.145325 377.364777,614.769592 376.732391,611.916687 
	C375.693939,607.231567 373.980835,602.696045 372.529388,597.698975 
	C373.652252,599.930786 374.797913,602.560974 375.995667,605.879333 
	C376.367523,607.049500 376.687286,607.531494 377.007050,608.013550 
z"/>
<path fill="#2454CE" opacity="1.000000" stroke="none" 
	d="
M706.270386,609.940552 
	C706.166992,605.799072 705.976196,601.657715 705.974182,597.516174 
	C705.958557,565.292542 705.979248,533.068970 706.363037,500.789825 
	C706.826050,501.389404 706.992249,502.044434 706.992493,502.699524 
	C707.005005,537.175476 707.011292,571.651428 706.972534,606.127319 
	C706.971130,607.398682 706.514771,608.669495 706.270386,609.940552 
z"/>
<path fill="#2454CE" opacity="1.000000" stroke="none" 
	d="
M863.565491,603.577209 
	C853.868835,618.475708 834.743774,622.462219 820.378784,612.579163 
	C805.087219,602.058655 801.935852,582.593567 813.387207,566.890991 
	C813.778564,566.805054 814.019531,567.019531 813.981201,567.374146 
	C813.437683,568.573547 812.934998,569.419983 812.426941,570.263123 
	C805.595825,581.600952 806.848328,596.950195 815.329895,605.828491 
	C825.937012,616.931702 839.707886,619.569885 852.150024,612.271912 
	C856.187317,609.903870 859.395508,606.122070 863.124695,603.138306 
	C863.266479,603.289673 863.565491,603.577209 863.565491,603.577209 
z"/>
<path fill="#1F52D9" opacity="1.000000" stroke="none" 
	d="
M706.176941,610.314697 
	C706.514771,608.669495 706.971130,607.398682 706.972534,606.127319 
	C707.011292,571.651428 707.005005,537.175476 706.992493,502.699524 
	C706.992249,502.044434 706.826050,501.389404 706.484863,500.416992 
	C706.171936,499.308258 706.111450,498.516876 706.388733,497.012329 
	C706.561157,490.548370 706.395752,484.797516 706.230347,479.046692 
	C706.170227,477.299713 706.110107,475.552765 706.356812,473.152161 
	C706.517578,471.346100 706.371643,470.193634 706.225647,469.041168 
	C706.164429,467.945770 706.103210,466.850342 706.374878,465.045471 
	C706.545288,461.238647 706.382690,458.141296 706.220154,455.043915 
	C706.160767,453.287262 706.101379,451.530579 706.133728,449.342712 
	C706.482971,444.928925 706.740479,440.946289 706.994629,436.510651 
	C707.328308,437.943237 707.958069,439.828613 707.959839,441.714539 
	C708.012146,498.499725 708.002502,555.284973 708.001221,612.539978 
	C707.614197,613.002441 707.228333,612.995117 706.553101,612.982910 
	C706.203613,612.215027 706.143494,611.451904 706.176941,610.314697 
z"/>
<path fill="#012FA9" opacity="1.000000" stroke="none" 
	d="
M527.160828,613.947876 
	C526.730652,613.946777 526.426758,613.713257 525.990356,613.220581 
	C525.912659,573.302979 525.975342,533.644592 526.019226,493.986206 
	C526.039490,475.655457 526.023010,457.324677 526.266541,438.504028 
	C526.509888,438.014191 526.978333,438.016541 526.978333,438.016541 
	C527.046265,438.448151 527.114197,438.879791 527.048950,440.097168 
	C526.893982,497.166656 526.870117,553.450378 526.864563,609.734131 
	C526.864441,610.887939 527.076416,612.041687 527.189392,613.195496 
	C527.221985,613.368774 527.254578,613.542114 527.160828,613.947876 
z"/>
<path fill="#1F52D9" opacity="1.000000" stroke="none" 
	d="
M527.298401,612.794434 
	C527.076416,612.041687 526.864441,610.887939 526.864563,609.734131 
	C526.870117,553.450378 526.893982,497.166656 527.003967,440.422974 
	C527.253723,440.933472 527.557190,441.903992 527.556641,442.874359 
	C527.522827,499.380707 527.463867,555.887085 527.298401,612.794434 
z"/>
<path fill="#1F52D9" opacity="1.000000" stroke="none" 
	d="
M527.347046,437.870422 
	C526.978333,438.016541 526.509888,438.014191 526.277466,438.039551 
	C526.317139,436.656891 526.589294,435.248810 526.861511,433.840759 
	C527.294006,433.730103 527.726562,433.619446 528.159119,433.508789 
	C530.222046,438.207520 532.445007,442.843536 534.317322,447.617065 
	C539.449158,460.701111 544.498657,473.818512 549.442627,486.974640 
	C551.264343,491.822449 552.699463,496.815552 554.028992,501.939819 
	C546.183105,482.806396 538.642456,463.466370 531.023743,444.157166 
	C530.143127,441.925262 528.828979,439.864441 527.347046,437.870422 
z"/>
<path fill="#2454CE" opacity="1.000000" stroke="none" 
	d="
M385.156921,452.553345 
	C383.606415,449.573730 381.732391,446.298096 380.490814,442.798126 
	C375.897583,429.849976 371.479706,416.839020 367.075897,403.824615 
	C366.095703,400.927856 365.441315,397.920868 364.740387,394.671692 
	C371.603851,413.637299 378.363800,432.895844 385.156921,452.553345 
z"/>
<path fill="#2454CE" opacity="1.000000" stroke="none" 
	d="
M567.135742,403.549988 
	C565.221069,399.866943 562.995972,395.893738 561.365784,391.689850 
	C557.114319,380.726532 553.123657,369.662140 549.062134,358.242859 
	C549.628113,358.438690 550.395203,358.940552 550.658936,359.633911 
	C556.172302,374.127838 561.628784,388.643402 567.135742,403.549988 
z"/>
<path fill="#2454CE" opacity="1.000000" stroke="none" 
	d="
M860.465271,565.520386 
	C870.340332,576.038025 871.707764,590.446777 863.797607,603.327698 
	C863.565491,603.577209 863.266479,603.289673 863.164062,602.772034 
	C868.922424,590.305908 869.044800,578.783752 860.563843,567.865356 
	C860.191833,567.386414 860.176575,566.630310 860.113831,565.883728 
	C860.232544,565.764099 860.465271,565.520386 860.465271,565.520386 
z"/>
<path fill="#2454CE" opacity="1.000000" stroke="none" 
	d="
M272.898071,357.336487 
	C273.285065,357.295868 273.697388,357.629547 273.638336,357.800537 
	C269.375580,370.152985 265.075317,382.492462 260.427551,394.883026 
	C264.285797,382.500305 268.494598,370.067596 272.898071,357.336487 
z"/>
<path fill="#2454CE" opacity="1.000000" stroke="none" 
	d="
M821.618469,559.531677 
	C831.386230,552.910095 841.418518,553.213928 851.823792,558.687439 
	C852.010864,558.989868 851.948364,559.056763 851.548950,559.044373 
	C841.296509,555.244080 831.555664,554.834412 821.904114,559.884033 
	C821.808105,559.767212 821.618469,559.531677 821.618469,559.531677 
z"/>
<path fill="#2964E7" opacity="1.000000" stroke="none" 
	d="
M543.509155,352.128723 
	C535.872131,352.378845 527.775513,352.544739 519.356262,352.456970 
	C527.038940,352.150330 535.044250,352.097412 543.509155,352.128723 
z"/>
<path fill="#2964E7" opacity="1.000000" stroke="none" 
	d="
M507.514313,352.112762 
	C501.207062,352.361969 494.439514,352.528839 487.351379,352.438904 
	C493.705200,352.131561 500.379639,352.080994 507.514313,352.112762 
z"/>
<path fill="#2454CE" opacity="1.000000" stroke="none" 
	d="
M706.134399,479.502686 
	C706.395752,484.797516 706.561157,490.548370 706.478638,496.623138 
	C706.166687,491.284302 706.102539,485.621490 706.134399,479.502686 
z"/>
<path fill="#2454CE" opacity="1.000000" stroke="none" 
	d="
M706.128662,455.440430 
	C706.382690,458.141296 706.545288,461.238647 706.464478,464.641846 
	C706.159790,461.910797 706.098450,458.873871 706.128662,455.440430 
z"/>
<path fill="#2454CE" opacity="1.000000" stroke="none" 
	d="
M852.042358,558.956665 
	C853.730591,559.945435 855.387390,560.967468 857.124084,562.377319 
	C857.204041,562.765076 856.991882,563.006104 856.677551,562.876343 
	C854.891602,561.516602 853.419983,560.286682 851.948364,559.056763 
	C851.948364,559.056763 852.010864,558.989868 852.042358,558.956665 
z"/>
<path fill="#2964E7" opacity="1.000000" stroke="none" 
	d="
M483.535645,352.103882 
	C481.194946,352.348572 478.412842,352.512939 475.335754,352.428955 
	C477.725250,352.128265 480.409729,352.075928 483.535645,352.103882 
z"/>
<path fill="#2454CE" opacity="1.000000" stroke="none" 
	d="
M817.579285,562.503845 
	C818.725891,561.585632 819.872498,560.667358 821.318787,559.640381 
	C821.618469,559.531677 821.808105,559.767212 821.766846,560.183594 
	C820.487915,561.404236 819.250183,562.208435 817.904053,562.885559 
	C817.795593,562.758484 817.579285,562.503845 817.579285,562.503845 
z"/>
<path fill="#2454CE" opacity="1.000000" stroke="none" 
	d="
M813.656982,566.699097 
	C814.011597,565.992859 814.487854,565.392578 815.350708,564.775269 
	C815.737366,564.758301 816.032715,565.032776 815.986023,565.349731 
	C815.299377,566.117676 814.659485,566.568604 814.019531,567.019531 
	C814.019531,567.019531 813.778564,566.805054 813.656982,566.699097 
z"/>
<path fill="#2454CE" opacity="1.000000" stroke="none" 
	d="
M857.308350,562.643066 
	C858.003723,563.025085 858.594727,563.529114 859.210205,564.403320 
	C859.234741,564.773438 858.993408,565.008240 858.672241,564.969177 
	C857.898071,564.288757 857.444946,563.647461 856.991882,563.006104 
	C856.991882,563.006104 857.204041,562.765076 857.308350,562.643066 
z"/>
<path fill="#2454CE" opacity="1.000000" stroke="none" 
	d="
M815.594360,564.616211 
	C815.987488,563.909180 816.523499,563.344238 817.319397,562.641541 
	C817.579285,562.503845 817.795593,562.758484 817.865479,563.204590 
	C817.301208,564.111389 816.666992,564.572083 816.032715,565.032837 
	C816.032715,565.032776 815.737366,564.758301 815.594360,564.616211 
z"/>
<path fill="#2454CE" opacity="1.000000" stroke="none" 
	d="
M706.132629,469.425446 
	C706.371643,470.193634 706.517578,471.346100 706.447388,472.723328 
	C706.167358,471.901978 706.103455,470.855835 706.132629,469.425446 
z"/>
<path fill="#1F52D9" opacity="1.000000" stroke="none" 
	d="
M549.116150,357.616547 
	C548.791199,357.156311 548.422424,356.343567 548.114258,355.164154 
	C548.474060,355.619690 548.773132,356.441833 549.116150,357.616547 
z"/>
<path fill="#2454CE" opacity="1.000000" stroke="none" 
	d="
M371.751923,595.398560 
	C372.111115,595.588074 372.478180,596.089905 372.719116,596.923157 
	C372.315216,596.739990 372.037506,596.225403 371.751923,595.398560 
z"/>
<path fill="#2454CE" opacity="1.000000" stroke="none" 
	d="
M859.358032,564.658691 
	C859.791748,564.651489 860.045532,564.836670 860.354004,565.309937 
	C860.465271,565.520386 860.232544,565.764099 859.889160,565.783447 
	C859.264893,565.605225 859.080750,565.340393 858.993408,565.008240 
	C858.993408,565.008240 859.234741,564.773438 859.358032,564.658691 
z"/>
<path fill="#FCFDFD" opacity="1.000000" stroke="none" 
	d="
M280.040192,513.843079 
	C280.040192,513.843079 279.999573,513.419189 280.024750,512.983765 
	C280.049927,512.548340 280.155334,512.067749 280.155334,512.067749 
	C280.155334,512.067749 280.068146,512.062683 280.330383,512.016418 
	C280.791748,510.994293 280.990906,510.018433 281.190063,509.042572 
	C281.190063,509.042572 281.072357,509.048920 281.316223,509.028259 
	C281.701019,508.344116 281.841919,507.680695 281.982819,507.017242 
	C281.982819,507.017242 282.089691,506.618835 282.398987,506.239746 
	C283.156738,504.799896 283.694916,503.767517 284.040558,502.674225 
	C291.394897,479.410889 298.715912,456.136963 306.072723,432.874390 
	C307.958954,426.910156 309.945038,420.977478 312.261322,413.877655 
	C314.458344,420.311737 316.300323,425.530823 318.025208,430.788330 
	C324.706207,451.152374 331.349945,471.528625 338.007538,491.900330 
	C339.306610,496.026978 340.605682,500.153625 341.995422,505.055420 
	C342.813293,508.424103 343.540466,511.017639 344.332642,513.843079 
	C322.440887,513.843079 301.240540,513.843079 280.040192,513.843079 
z"/>
<path fill="#2454CE" opacity="1.000000" stroke="none" 
	d="
M338.136383,491.586365 
	C331.349945,471.528625 324.706207,451.152374 318.025208,430.788330 
	C316.300323,425.530823 314.458344,420.311737 312.261322,413.877655 
	C309.945038,420.977478 307.958954,426.910156 306.072723,432.874390 
	C298.715912,456.136963 291.394897,479.410889 284.040558,502.674225 
	C283.694916,503.767517 283.156738,504.799896 282.388184,506.033752 
	C284.010895,498.883759 285.706055,491.483917 287.947357,484.253357 
	C292.802277,468.591309 297.932556,453.014557 302.958740,437.405701 
	C305.220123,430.382935 307.433014,423.342926 309.841888,416.370850 
	C310.244934,415.204346 311.538483,414.345490 312.420563,413.344482 
	C313.364319,414.377838 314.773102,415.255127 315.180298,416.468506 
	C319.505951,429.358826 323.718231,442.287933 327.868256,455.236267 
	C331.156006,465.494232 334.349518,475.782928 337.492889,486.086029 
	C337.997345,487.739471 338.019897,489.539948 338.136383,491.586365 
z"/>
<path fill="#2454CE" opacity="1.000000" stroke="none" 
	d="
M280.102722,514.252686 
	C301.240540,513.843079 322.440887,513.843079 344.332642,513.843079 
	C343.540466,511.017639 342.813293,508.424103 342.095062,505.442322 
	C343.306488,508.042480 344.508972,511.030884 345.711456,514.019287 
	C343.438019,514.674255 341.169312,515.877441 338.890320,515.897217 
	C320.952179,516.053101 303.011902,516.016907 285.072876,515.924744 
	C283.434875,515.916321 281.801025,515.102295 280.102722,514.252686 
z"/>
<path fill="#1F52D9" opacity="1.000000" stroke="none" 
	d="
M359.702271,557.702515 
	C328.646576,558.000000 297.298187,558.000000 265.483093,558.000000 
	C266.239594,557.667542 267.462341,557.046936 268.686127,557.044861 
	C298.283722,556.994141 327.881470,557.007019 357.479156,557.029358 
	C358.122711,557.029846 358.766113,557.274353 359.702271,557.702515 
z"/>
<path fill="#1F52D9" opacity="1.000000" stroke="none" 
	d="
M439.518524,612.981812 
	C439.435364,613.290161 438.884369,613.900391 438.335083,613.898865 
	C419.098175,613.845703 399.861450,613.735046 380.329498,613.346313 
	C399.706696,613.039490 419.379089,613.018921 439.518524,612.981812 
z"/>
<path fill="#2454CE" opacity="1.000000" stroke="none" 
	d="
M280.879333,509.219971 
	C280.990906,510.018433 280.791748,510.994293 280.342285,512.058472 
	C280.250854,511.230286 280.409729,510.313843 280.879333,509.219971 
z"/>
<path fill="#2454CE" opacity="1.000000" stroke="none" 
	d="
M281.728485,507.197205 
	C281.841919,507.680695 281.701019,508.344116 281.332886,509.084778 
	C281.228546,508.567047 281.351349,507.972107 281.728485,507.197205 
z"/>
<path fill="#1F52D9" opacity="1.000000" stroke="none" 
	d="
M366.004974,573.673828 
	C365.674316,573.225281 365.345215,572.435974 365.025208,571.303223 
	C365.358429,571.750793 365.682465,572.541992 366.004974,573.673828 
z"/>
<path fill="#1F52D9" opacity="1.000000" stroke="none" 
	d="
M376.986694,607.712524 
	C376.687286,607.531494 376.367523,607.049500 376.040009,606.261963 
	C376.343628,606.441467 376.654968,606.926453 376.986694,607.712524 
z"/>
<path fill="#1F52D9" opacity="1.000000" stroke="none" 
	d="
M379.834106,612.773560 
	C379.630524,612.895569 379.389099,612.730225 379.095612,612.290405 
	C379.304749,612.148499 379.555634,612.305298 379.834106,612.773560 
z"/>
<path fill="#2454CE" opacity="1.000000" stroke="none" 
	d="
M279.961884,512.109131 
	C280.155334,512.067749 280.049927,512.548340 279.964691,512.779541 
	C279.742340,512.807190 279.593658,512.609497 279.483551,512.392334 
	C279.470459,512.366516 279.668335,512.233765 279.961884,512.109131 
z"/>
<path fill="#2964E7" opacity="1.000000" stroke="none" 
	d="
M858.672241,564.969177 
	C859.080750,565.340393 859.264893,565.605225 859.770447,565.903076 
	C860.176575,566.630310 860.191833,567.386414 860.563843,567.865356 
	C869.044800,578.783752 868.922424,590.305908 863.022339,602.620667 
	C859.395508,606.122070 856.187317,609.903870 852.150024,612.271912 
	C839.707886,619.569885 825.937012,616.931702 815.329895,605.828491 
	C806.848328,596.950195 805.595825,581.600952 812.426941,570.263123 
	C812.934998,569.419983 813.437683,568.573547 813.981201,567.374146 
	C814.659485,566.568604 815.299377,566.117676 815.986023,565.349792 
	C816.666992,564.572083 817.301208,564.111389 817.973938,563.331665 
	C819.250183,562.208435 820.487915,561.404236 821.862915,560.300415 
	C831.555664,554.834412 841.296509,555.244080 851.548950,559.044373 
	C853.419983,560.286682 854.891602,561.516602 856.677551,562.876343 
	C857.444946,563.647461 857.898071,564.288757 858.672241,564.969177 
z"/>
</svg>